# xmcd CD database file
#
# Track frame offsets:
#	150
#	15532
#	31947
#	58300
#	84442
#	100408
#	119772
#	138048
#	154774
#
# Disc length: 2259 seconds
#
# Revision: 0
# Processed by: cddbd v1.5.1PL0 Copyright (c) Steve Scherf et al.
# Submitted via: CDex 1.51
#
DISCID=7008d109
DTITLE=Bigsby Blues Band - Cause the travel must be done
DYEAR=2004
DGENRE=Blues
TTITLE0=Not to fancy
TTITLE1=Mamma said
TTITLE2=Drifting
TTITLE3=Cause the travel must be done
TTITLE4=Slide
TTITLE5=Junior's wailing
TTITLE6=Huatacan
TTITLE7=Every day, every night
TTITLE8=Duck's tail
EXTD=YEAR: 2004
EXTT0=
EXTT1=
EXTT2=
EXTT3=
EXTT4=
EXTT5=
EXTT6=
EXTT7=
EXTT8=
PLAYORDER=
